# xmcd
#
# Track frame offsets:
#	150
#	18772
#	39725
#	55327
#	73382
#	92145
#	116419
#	135981
#	173852
#	196919
#
# Disc length: 2912 seconds
#
# Revision: 0
# Processed by: cddbd v1.5.2PL0 Copyright (c) Steve Scherf et al.
# Submitted via: dBpowerAMP V4.0
#
DISCID=860b5e0a
DTITLE=Midnight Choir - Die Halle - Reichenbach live - CD 1
DYEAR=1900
DGENRE=
TTITLE0=Will You Carry Me Across The water
TTITLE1=Snow In Berlin
TTITLE2=Long Hard Ride
TTITLE3=Violence Of The World
TTITLE4=Talk To Me
TTITLE5=Amsterdam Stranded
TTITLE6=Depths Of The Earth
TTITLE7=Fell Bridges
TTITLE8=Mercy Of Maria
TTITLE9=Degas' Eyes
EXTD=
EXTT0=
EXTT1=
EXTT2=
EXTT3=
EXTT4=
EXTT5=
EXTT6=
EXTT7=
EXTT8=
EXTT9=
PLAYORDER=
